<?xml version="1.0" encoding="UTF-8" standalone="no"?>
<svg
   xmlns:dc="http://purl.org/dc/elements/1.1/"
   xmlns:cc="http://creativecommons.org/ns#"
   xmlns:rdf="http://www.w3.org/1999/02/22-rdf-syntax-ns#"
   xmlns:svg="http://www.w3.org/2000/svg"
   xmlns="http://www.w3.org/2000/svg"
   viewBox="0 0 312.79291 206.73665"
   height="206.73665"
   width="312.79291"
   xml:space="preserve"
   id="svg2"
   version="1.1"><metadata
     id="metadata8"><rdf:RDF><cc:Work
         rdf:about=""><dc:format>image/svg+xml</dc:format><dc:type
           rdf:resource="http://purl.org/dc/dcmitype/StillImage" /><dc:title></dc:title></cc:Work></rdf:RDF></metadata><defs
     id="defs6"><clipPath
       id="clipPath18"
       clipPathUnits="userSpaceOnUse"><path
         id="path16"
         d="M 0,1080 H 1920 V 0 H 0 Z" /></clipPath><clipPath
       id="clipPath26"
       clipPathUnits="userSpaceOnUse"><path
         id="path24"
         d="m 702,567.5 h 551 v -1 H 702 Z" /></clipPath><clipPath
       id="clipPath42"
       clipPathUnits="userSpaceOnUse"><path
         id="path40"
         d="m 702,588 h 551 v -1 H 702 Z" /></clipPath><clipPath
       id="clipPath58"
       clipPathUnits="userSpaceOnUse"><path
         id="path56"
         d="m 702,572 h 551 v -1 H 702 Z" /></clipPath><clipPath
       id="clipPath74"
       clipPathUnits="userSpaceOnUse"><path
         id="path72"
         d="m 702,549 h 551 v -1 H 702 Z" /></clipPath><clipPath
       id="clipPath90"
       clipPathUnits="userSpaceOnUse"><path
         id="path88"
         d="m 702,512 h 551 v -1 H 702 Z" /></clipPath><clipPath
       id="clipPath106"
       clipPathUnits="userSpaceOnUse"><path
         id="path104"
         d="m 702,438 h 551 v -1 H 702 Z" /></clipPath><clipPath
       id="clipPath122"
       clipPathUnits="userSpaceOnUse"><path
         id="path120"
         d="m 789,608.5 h 1 v -189 h -1 z" /></clipPath><clipPath
       id="clipPath138"
       clipPathUnits="userSpaceOnUse"><path
         id="path136"
         d="m 807,608 h 1 V 419 h -1 z" /></clipPath><clipPath
       id="clipPath154"
       clipPathUnits="userSpaceOnUse"><path
         id="path152"
         d="m 1110,608.5 h 1 v -189 h -1 z" /></clipPath><clipPath
       id="clipPath170"
       clipPathUnits="userSpaceOnUse"><path
         id="path168"
         d="m 1128,608 h 1 V 419 h -1 z" /></clipPath><clipPath
       id="clipPath186"
       clipPathUnits="userSpaceOnUse"><path
         id="path184"
         d="m 881,608.5 h 1 v -189 h -1 z" /></clipPath><clipPath
       id="clipPath202"
       clipPathUnits="userSpaceOnUse"><path
         id="path200"
         d="m 899,608 h 1 V 419 h -1 z" /></clipPath><clipPath
       id="clipPath218"
       clipPathUnits="userSpaceOnUse"><path
         id="path216"
         d="m 1116.22,622.404 h 6.97 v -10.997 h -6.97 z" /></clipPath><clipPath
       id="clipPath238"
       clipPathUnits="userSpaceOnUse"><path
         id="path236"
         d="m 795.223,622.404 h 6.967 v -10.997 h -6.967 z" /></clipPath><clipPath
       id="clipPath258"
       clipPathUnits="userSpaceOnUse"><path
         id="path256"
         d="M 0,1080 H 1920 V 0 H 0 Z" /></clipPath><clipPath
       id="clipPath258-9"
       clipPathUnits="userSpaceOnUse"><path
         id="path256-5"
         d="M 0,1080 H 1920 V 0 H 0 Z" /></clipPath></defs><g
     transform="matrix(1.3333333,0,0,-1.3333333,-937.66413,824.94409)"
     id="g10"><g
       id="g252"
       transform="translate(-139.4547,1.1818511)"><g
         clip-path="url(#clipPath258-9)"
         id="g254"><g
           transform="translate(1031.3765,615.5767)"
           id="g260"><path
             id="path262"
             style="fill:#eded85;fill-opacity:1;fill-rule:nonzero;stroke:none"
             d="M 0,0 C -0.723,1.17 0.668,2.498 1.798,1.714 2.357,1.326 2.916,0.937 3.474,0.545 c 2.22,-1.565 4.43,-3.16 6.625,-4.798 4.384,-3.285 8.709,-6.732 12.91,-10.524 4.191,-3.805 8.279,-7.935 12.035,-12.825 1.872,-2.45 3.65,-5.109 5.248,-8.055 0.806,-1.464 1.539,-3.028 2.23,-4.647 l 0.49,-1.243 0.243,-0.627 0.223,-0.644 0.439,-1.298 c 0.137,-0.442 0.264,-0.89 0.393,-1.339 1.036,-3.586 1.607,-7.556 1.611,-11.657 -0.032,-4.096 -0.648,-8.317 -1.831,-12.271 -0.147,-0.493 -0.293,-0.994 -0.452,-1.483 l -0.505,-1.449 -0.261,-0.725 -0.28,-0.703 -0.574,-1.409 c -0.2,-0.461 -0.408,-0.911 -0.616,-1.367 -0.21,-0.451 -0.417,-0.919 -0.641,-1.35 -0.443,-0.871 -0.89,-1.773 -1.368,-2.602 -1.891,-3.397 -4.016,-6.488 -6.235,-9.333 -4.456,-5.686 -9.26,-10.427 -14.118,-14.751 -2.433,-2.152 -4.886,-4.172 -7.355,-6.128 -2.47,-1.953 -4.946,-3.793 -7.439,-5.604 l -1.066,-0.775 c -12.167,-8.84 -29.197,-6.144 -38.037,6.023 -8.841,12.167 -6.144,29.197 6.023,38.038 3.147,2.287 6.755,3.824 10.328,4.603 2.277,0.485 4.549,0.989 6.744,1.543 2.192,0.554 4.351,1.139 6.423,1.77 4.129,1.262 7.994,2.695 11.268,4.259 1.637,0.781 3.122,1.587 4.439,2.404 0.349,0.204 0.633,0.409 0.958,0.614 0.168,0.104 0.298,0.206 0.448,0.31 l 0.447,0.311 0.415,0.312 0.214,0.158 0.193,0.158 0.4,0.319 0.37,0.323 c 1.009,0.868 1.829,1.796 2.572,2.936 0.694,1.146 1.302,2.516 1.628,4.178 l 0.127,0.629 0.091,0.656 0.048,0.333 0.028,0.343 0.059,0.695 c 0.04,0.946 0.058,1.934 -0.016,2.967 -0.124,2.061 -0.472,4.267 -1.01,6.53 -1.082,4.535 -2.856,9.269 -4.969,13.966 -2.124,4.703 -4.593,9.391 -7.229,14.033 -1.323,2.319 -2.689,4.629 -4.085,6.93 C 0.706,-1.147 0.354,-0.573 0,0" /></g><g
           transform="translate(949.2637,462.8657)"
           id="g264"><path
             id="path266"
             style="fill:#eded85;fill-opacity:1;fill-rule:nonzero;stroke:none"
             d="m 0,0 c -9.185,1.281 -18.437,2.848 -27.776,4.881 -1.161,0.241 -2.339,0.521 -3.511,0.796 -1.174,0.279 -2.337,0.539 -3.515,0.836 -2.36,0.604 -4.699,1.188 -7.073,1.874 -2.353,0.638 -4.745,1.394 -7.109,2.128 l -3.577,1.197 c -0.591,0.193 -1.195,0.418 -1.794,0.636 l -1.795,0.657 c -4.789,1.789 -9.61,3.84 -14.43,6.34 -4.812,2.502 -9.64,5.463 -14.267,9.133 -4.619,3.63 -9.023,8.143 -12.608,13.338 -3.569,5.215 -6.215,11.136 -7.589,16.996 -0.389,1.463 -0.614,2.92 -0.878,4.368 -0.1,0.721 -0.187,1.439 -0.275,2.156 -0.041,0.357 -0.091,0.717 -0.122,1.071 l -0.077,1.06 c -0.239,2.835 -0.184,5.565 -0.05,8.23 0.351,5.301 1.241,10.262 2.453,14.932 1.211,4.675 2.697,9.1 4.327,13.371 1.633,4.271 3.413,8.387 5.274,12.414 3.728,8.049 7.759,15.756 11.837,23.394 2.402,4.491 4.823,8.956 7.234,13.422 0.868,1.61 3.321,0.725 2.961,-1.068 -1.002,-4.981 -2.013,-9.958 -2.992,-14.926 -1.658,-8.44 -3.231,-16.865 -4.377,-25.18 -0.569,-4.155 -1.025,-8.28 -1.299,-12.33 -0.273,-4.049 -0.362,-8.024 -0.181,-11.824 0.171,-3.799 0.679,-7.399 1.487,-10.622 0.438,-1.589 0.898,-3.118 1.507,-4.468 l 0.211,-0.515 c 0.074,-0.168 0.161,-0.325 0.24,-0.487 l 0.468,-0.953 c 0.002,-0.003 0.003,-0.006 0.004,-0.008 0.363,-0.589 0.663,-1.204 1.053,-1.728 l 0.271,-0.406 c 0.087,-0.137 0.176,-0.271 0.281,-0.391 0.199,-0.249 0.393,-0.496 0.58,-0.742 0.186,-0.248 0.415,-0.459 0.61,-0.688 l 0.298,-0.338 c 0.101,-0.11 0.22,-0.207 0.325,-0.312 l 0.634,-0.613 c 0.114,-0.091 0.226,-0.183 0.336,-0.274 0.282,-0.233 0.745,-0.606 1.039,-0.823 l 0.346,-0.256 c 0.115,-0.087 0.224,-0.175 0.357,-0.251 1.968,-1.287 4.144,-2.364 6.774,-3.238 2.597,-0.881 5.526,-1.584 8.694,-2.098 3.167,-0.515 6.562,-0.842 10.076,-1.019 l 1.325,-0.058 c 0.44,-0.02 0.875,-0.046 1.333,-0.048 l 2.702,-0.049 c 1.841,0.012 3.648,-0.003 5.527,0.07 1.844,0.035 3.748,0.148 5.624,0.24 0.942,0.049 1.906,0.131 2.855,0.193 0.951,0.067 1.896,0.127 2.865,0.222 7.446,0.64 15.03,1.617 22.675,2.834 C 17.035,63.9 33.997,51.499 35.764,33.616 37.361,17.447 26.107,2.624 9.85,0.007 6.77,-0.489 3.724,-0.513 0.784,-0.118 Z" /></g><g
           transform="translate(938.4937,552.3677)"
           id="g268"><path
             id="path270"
             style="fill:#2d6455;fill-opacity:1;fill-rule:nonzero;stroke:none"
             d="m 0,0 c 4.631,0.038 8.793,-2.004 11.601,-5.253 1.902,-2.201 5.229,-2.174 7.095,0.057 2.756,3.294 6.884,5.403 11.515,5.44 0.08,0.001 0.159,0.001 0.238,0.001 2.24,-0.017 4.211,1.494 4.66,3.689 0.348,1.695 0.526,3.384 0.513,5.015 C 35.53,20.245 26.356,22.275 15.061,22.184 3.766,22.092 -5.374,19.914 -5.282,8.619 -5.27,7.04 -5.077,5.41 -4.725,3.774 -4.247,1.556 -2.269,-0.021 0,0" /></g><g
           transform="translate(947.9136,543.3628)"
           id="g272"><path
             id="path274"
             style="fill:#2d6455;fill-opacity:1;fill-rule:nonzero;stroke:none"
             d="m 0,0 c 0,1.033 0.265,-1.483 5.863,-1.483 5.786,0 5.864,2.516 5.864,1.483 0,-3.176 -2.625,-5.751 -5.864,-5.751 C 2.625,-5.751 0,-3.176 0,0" /></g><g
           transform="translate(917.0059,583.6118)"
           id="g276"><path
             id="path278"
             style="fill:#2d6455;fill-opacity:1;fill-rule:nonzero;stroke:none"
             d="m 0,0 c 0,-4.97 -4.029,-8 -9,-8 -4.971,0 -9,3.03 -9,8 0,4.971 4.029,8 9,8 4.971,0 9,-3.029 9,-8" /></g><g
           transform="translate(1009.0059,583.6118)"
           id="g280"><path
             id="path282"
             style="fill:#2d6455;fill-opacity:1;fill-rule:nonzero;stroke:none"
             d="m 0,0 c 0,-4.97 -4.029,-2 -9,-2 -4.971,0 -9,-2.97 -9,2 0,4.971 4.029,9 9,9 4.971,0 9,-4.029 9,-9" /></g></g></g></g></svg>